<?xml version="1.0" standalone="no"?>
<!DOCTYPE svg SYSTEM "svg-19990812.dtd">
<!-- Generator: SIGNLAB -->
<svg viewbox="0 0 518 152" width="518" height="152"  xmlns="http://www.w3.org/2000/svg" xmlns:xlink="http://www.w3.org/1999/xlink">
<g>
<title>Layer 1</title>
<g transform="matrix(1 0 0 -1 -7 204)"
style="text-rendering:optimizeLegibility;
shape-rendering:default;
image-rendering:optimizeQuality">
<desc>Untitled</desc>
<path style="fill:#000000;stroke:#000000;fill-rule: evenodd;stroke-linejoin:round;stroke-width:0.000001"
d="M114.539019 119.179845 
L121.289859 111.940448 
C122.691497 112.283095 124.095607 112.601070 125.502160 112.894753 
C125.830998 118.684148 128.681825 124.446113 131.260453 130.202537 
L105.365286 157.971703 
C102.065303 156.141523 98.788360 154.571155 95.432955 153.366084 
L101.997749 146.326205 
L102.050040 146.343065 
L124.033236 122.768973 
L114.539019 119.179845 
z"/>
<path style="fill:#000000;stroke:#000000;fill-rule: evenodd;stroke-linejoin:round;stroke-width:0.000001"
d="M110.830084 117.777745 
L110.639472 117.705687 
L88.967849 140.945658 
C92.009960 143.001738 95.082861 143.984043 98.165140 145.056722 
L91.570401 152.128714 
C90.116331 151.733473 88.655244 151.409537 87.187352 151.153998 
C86.511170 145.377071 84.696088 139.799507 81.503308 133.915454 
C88.156766 126.767959 94.903919 119.586838 101.463682 112.472971 
C102.300677 111.490803 103.154328 110.440273 103.722620 109.337416 
C104.514725 107.726211 104.335876 106.577231 104.196653 104.965135 
L105.260283 104.568836 
C109.174567 108.002077 113.248688 109.673082 117.283124 110.857700 
L110.830084 117.777745 
z"/>
<path style="fill:#000000;stroke:#000000;fill-rule: evenodd;stroke-linejoin:round;stroke-width:0.000001"
d="M352.574145 152.395300 
L352.574145 168.201062 
C351.509342 168.827675 350.451557 169.484331 349.401108 170.172987 
C345.531334 166.889408 341.876178 164.468959 337.937724 162.275658 
C333.447528 159.790831 328.694997 157.782919 323.939179 156.203444 
C323.925493 140.579454 323.984797 124.958613 323.898122 109.331474 
C323.735239 106.780392 323.780006 104.399384 322.517100 101.650853 
C321.834026 100.321734 320.433968 98.850835 318.903646 97.563849 
L319.715828 95.939483 
C326.489211 95.758909 333.547869 93.811184 340.315239 90.341856 
L340.315239 116.428387 
L340.345270 116.428387 
L340.345270 156.284662 
C344.407001 155.630450 348.521384 154.197361 352.574145 152.395300 
z"/>
<path style="fill:#000000;stroke:#000000;fill-rule: evenodd;stroke-linejoin:round;stroke-width:0.000001"
d="M361.543240 139.514274 
L361.543240 96.751666 
L349.315239 101.764678 
L349.315239 85.479975 
C350.375201 84.862803 351.432602 84.234332 352.487403 83.594305 
C359.457952 90.018480 366.705989 92.628633 373.880563 95.812517 
C375.286349 96.407206 376.699059 96.985527 378.111769 97.563849 
L378.111769 158.315119 
C372.600754 159.691109 367.038561 161.379478 361.574145 163.716821 
L361.574145 139.514274 
L361.543240 139.514274 
z"/>
<path style="fill:#000000;stroke:#000000;fill-rule: evenodd;stroke-linejoin:round;stroke-width:0.000001"
d="M415.577852 117.966769 
L415.577852 123.403318 
L415.553407 123.386184 
L415.553407 160.264357 
L416.690463 160.832885 
L436.946809 138.381108 
L424.577852 129.711540 
L424.577852 124.274805 
L451.939195 143.452174 
L429.035641 170.172987 
C419.954705 165.598322 410.890082 160.625613 401.824356 157.481426 
C400.960772 157.159192 400.094653 156.843754 399.228534 156.528317 
C399.216008 140.101241 399.270285 123.676382 399.190957 107.247090 
C399.082447 104.843150 399.087178 102.451165 398.407458 100.029392 
C398.141435 98.864202 396.429572 96.642438 394.599092 95.695828 
L394.599092 93.665371 
C402.051624 92.059361 409.618119 90.282929 417.088368 86.447336 
C418.952891 85.532334 420.810167 84.581761 422.660006 83.594305 
L448.934119 101.949636 
L447.147316 104.386184 
L434.396047 95.695828 
L415.553407 103.167910 
C415.561556 108.100863 415.526246 113.033816 415.577852 117.966769 
z"/>
<path style="fill:#000000;stroke:#000000;fill-rule: evenodd;stroke-linejoin:round;stroke-width:0.000001"
d="M521.097551 130.335869 C514.811595 133.633181 508.525639 136.913973 502.239683 140.192786 
C501.341112 140.713276 500.282814 141.233766 499.304379 141.754256 
L489.579784 128.814614 
L478.457956 134.579842 
L478.457956 157.480858 
C483.668002 153.782099 489.268424 151.558446 494.655607 150.993558 
C495.721500 150.882753 496.793894 150.837257 497.545933 150.824580 
C499.066800 150.807977 499.533704 150.882715 500.498070 150.972939 
C502.673445 151.207122 505.033898 151.732517 507.286637 152.375528 
L504.783061 149.044244 
L507.917443 147.402006 
C511.715182 152.240703 515.611118 157.115571 519.310661 161.918096 
C521.004015 164.214546 522.567808 166.479251 523.540849 168.718146 
C523.852909 169.444497 524.114551 170.192199 524.289784 170.755189 
C524.742466 172.275468 524.859258 173.164680 524.961054 174.365339 
C525.038698 176.664032 525.101914 179.220992 522.533225 181.636419 
C521.460424 182.644147 519.704993 183.399045 518.003738 182.910396 
C517.408319 182.717574 516.890628 182.411795 516.459069 182.027917 
C516.019592 181.663588 515.561516 181.113809 515.218856 180.457221 
C514.004957 177.504457 514.572459 175.273401 516.957056 172.798647 
C518.111228 171.721363 519.239020 170.617624 519.353640 169.535420 
C519.437546 169.044948 519.427258 168.179664 518.889249 167.181025 
C518.471145 166.464097 518.414687 166.407393 517.952860 165.901891 
C517.150877 164.959329 515.272764 163.773223 513.975839 163.462573 
C512.305645 162.974559 510.328881 162.866971 508.445333 162.944304 
C507.407301 162.979724 505.755399 163.162495 503.974170 163.479759 
C497.380794 164.834157 490.876759 167.634054 484.346281 170.313345 
C483.061305 168.669699 481.484072 166.857333 479.741327 165.194220 
C479.233281 164.706406 478.715568 164.228415 477.966929 163.603177 
C477.218289 162.977938 476.238723 162.205450 475.206494 161.511268 
C474.174265 160.817085 473.089373 160.201206 472.190244 159.725468 
C470.409666 158.793877 469.171420 158.265073 467.682109 157.670573 
C465.826276 156.914697 463.935849 156.290927 462.051865 155.694056 
L462.051865 125.399639 
L479.814555 115.834918 
L479.780226 115.789313 
L482.761268 114.227417 
L492.431307 127.183903 
L504.529023 120.688979 
L504.529023 97.135679 
C501.369691 99.089598 497.663401 100.852156 494.365641 101.852835 
C492.244532 102.499154 490.144875 102.949195 488.117886 103.151900 
C487.121505 103.252135 486.119798 103.298088 485.325120 103.306808 
C482.908073 103.303217 481.559381 103.092432 479.536740 102.743947 
C477.429891 102.358805 475.131476 101.733181 472.853895 100.952938 
L477.309773 106.923185 
L474.295131 108.502686 
C469.696127 102.303374 464.872685 96.134312 459.478155 89.904751 
C458.401549 88.687143 456.709069 87.367218 456.956383 86.138808 
C457.085006 85.535686 457.243050 85.264518 457.828925 84.628519 
C458.935132 83.650203 459.295004 83.588214 460.289824 83.879238 
C461.694020 84.399190 463.291614 85.958805 464.784710 86.835688 
C467.813299 88.712753 470.812797 89.617081 473.891720 89.943454 
C475.377710 90.092578 476.789041 90.090179 478.016133 90.030711 
C478.566225 90.007885 479.116544 89.983619 480.154596 89.853683 
C482.249791 89.610818 485.754301 88.922642 488.588744 87.651146 
C491.135613 86.588663 493.676076 85.232054 496.204150 83.734663 
C498.535151 85.860142 500.807516 87.779484 503.157677 89.451190 
C504.488918 90.399477 505.779180 91.231258 506.985609 91.915654 
C507.567448 92.247993 508.156398 92.568502 509.086545 92.997083 
C510.016691 93.425665 511.288034 93.962318 512.592256 94.400975 
C513.896478 94.839633 515.233580 95.180295 516.278120 95.413843 
C518.307928 95.861278 519.520667 95.993393 521.097551 96.161060 
L521.097551 130.335869 
z"/>
<path style="fill:#000000;stroke:#000000;fill-rule: evenodd;stroke-linejoin:round;stroke-width:0.000001"
d="M242.010039 63.777046 
L242.010039 60.203442 
L245.807194 60.203442 
L245.807194 91.959788 
C256.479138 91.214180 267.090550 87.926950 277.685367 83.594305 
L302.659987 105.766894 
C302.636541 124.276742 302.738138 142.781205 302.589650 161.296436 
C302.513869 163.467114 302.374391 165.638541 302.067699 167.804237 
C301.454482 172.433722 300.317621 175.954117 297.621658 179.816695 
C296.668189 181.235050 295.111102 183.135594 293.226291 185.151344 
C285.117223 193.293122 276.695487 198.272421 268.345265 203.716135 
L245.807194 189.028317 
L245.807194 203.716135 
L242.071153 203.716135 
L242.071153 186.818926 
L235.955604 182.643153 
L235.955604 178.248962 
L242.071153 182.303698 
L242.071153 181.983095 
L245.807194 184.304746 
L245.807194 184.780855 
L256.337651 191.760551 
C261.342196 189.238100 266.335285 186.568510 271.319213 183.244499 
C272.893590 182.213483 274.413151 181.098745 275.863399 179.900748 
C277.313647 178.702752 278.694581 177.421495 279.622751 176.510664 
C280.550921 175.599833 281.026326 175.059427 281.483736 174.504544 
C285.088772 170.228009 285.621488 166.803103 286.199084 163.018582 
C286.374694 161.578141 286.484712 159.946268 286.497550 158.396337 
C282.343562 155.667989 278.255916 153.333127 274.146296 152.238501 
C272.600088 151.817453 271.016832 151.535719 269.657824 151.373235 
C268.298817 151.210752 267.164058 151.167519 266.029333 151.167891 
C263.678296 151.156694 260.888252 151.425912 257.982521 152.238477 
C256.465223 152.670898 254.993330 153.260821 253.924927 153.730857 
C251.898845 154.633474 250.969302 155.217089 249.570077 156.014883 
L249.570077 151.526558 
C251.056889 150.762450 252.225525 150.209848 253.625299 149.650506 
C255.336553 148.964931 257.215623 148.394344 259.080032 148.067340 
C264.228290 147.174746 269.697776 147.253188 275.222939 148.862321 
C279.043239 150.032310 282.758662 152.009259 286.497550 154.172987 
L286.497550 128.914103 
L286.465366 128.932032 
C286.476094 127.382908 286.429605 125.833785 286.497550 124.284661 
L286.497550 96.589229 
C281.243212 99.074219 275.972557 101.335464 270.694832 103.152515 
C266.846612 104.339163 262.998391 105.525811 259.068105 106.290862 
C255.137818 107.055914 251.125465 107.399370 247.113113 107.742826 
L242.071153 107.401152 
L242.071153 63.777046 
L242.010039 63.777046 
z"/>
<path style="fill:#000000;stroke:#000000;fill-rule: evenodd;stroke-linejoin:round;stroke-width:0.000001"
d="M238.321711 63.777046 
L232.324960 63.777046 
L232.324960 169.798894 
L232.267276 169.798894 
L232.267276 181.758944 
C232.146929 183.694429 231.955285 185.660420 231.498061 187.603821 
C230.703057 190.963284 229.531107 193.945305 226.298980 196.961390 
C225.833517 197.408347 225.356841 197.845734 224.151774 198.664628 
C222.946706 199.483522 221.013248 200.683922 218.939406 201.546368 
C216.865564 202.408814 214.651339 202.933305 213.143227 203.222784 
C211.635116 203.512263 210.833119 203.566729 210.032053 203.619714 
C209.230988 203.672699 208.430853 203.724203 207.311469 203.715121 
C205.137408 203.712753 201.907907 203.410568 199.168714 202.609964 
C197.845652 202.238900 196.611048 201.789611 195.417643 201.251101 
C194.224238 200.712592 193.072030 200.084863 192.182444 199.563493 
C190.411853 198.514040 189.479726 197.821365 188.175198 196.843867 
C186.914266 195.879579 185.543101 194.728566 184.243741 193.523241 
L186.396025 190.964866 
C188.475156 192.227476 191.039072 193.472120 193.236109 194.161107 
C194.751801 194.673005 196.684354 195.039349 198.779355 195.105000 
C201.079335 195.178480 203.929867 194.709507 206.797251 193.411423 
C208.240810 192.738859 209.578628 191.838547 210.547924 191.056916 
C211.517219 190.275285 212.117991 189.612334 212.633506 188.891015 
C213.149021 188.169697 213.579279 187.390011 213.861337 186.795380 
C214.466096 185.455608 214.510153 184.985385 214.743328 184.034206 
C215.370404 181.190545 215.498704 177.967185 215.512777 174.926794 
L215.512777 169.252936 
L215.399215 169.178335 
L215.399215 164.619262 
L215.512777 164.694561 
L215.512777 140.609535 
C213.013133 143.183558 209.871792 145.975526 207.226385 147.798607 
C204.367782 149.794157 201.074294 151.521380 197.807193 152.954713 
L211.710886 162.173683 
L211.710886 166.755389 
C205.466408 162.660737 199.204115 158.514457 192.977450 154.471433 
C190.056617 152.662196 187.185584 151.086590 184.243741 149.624763 
L184.243741 146.213596 
C187.565723 145.329351 191.333927 144.054644 194.728855 142.464151 
C195.749224 141.992822 196.759279 141.498006 198.109539 140.722384 
C199.459800 139.946762 201.150267 138.890335 202.730283 137.688478 
C204.310298 136.486621 205.779863 135.139334 206.798119 134.132487 
C208.732555 132.205020 209.428814 131.158772 210.445174 129.700911 
C211.867836 127.545531 212.782136 125.506767 213.470716 123.361023 
C213.976124 121.784119 214.368830 120.040166 214.689763 118.201631 
C215.228137 115.060112 215.489568 111.399003 215.512777 107.797351 
C212.038699 107.095614 208.132420 106.048147 204.589306 104.720080 
C203.505465 104.319002 202.429915 103.894501 200.981686 103.227718 
C199.533457 102.560934 197.712549 101.651869 195.976712 100.602286 
C194.240875 99.552703 192.590110 98.362603 191.232370 97.320524 
C188.654054 95.325586 186.810227 93.688881 184.673947 91.671787 
C181.875583 89.066239 179.290273 86.340363 176.771659 83.634914 
L179.411253 80.426792 
C182.007379 82.509989 184.928032 84.530426 187.609910 86.078400 
C188.496677 86.595999 189.393855 87.096310 190.681954 87.728450 
C191.970053 88.360589 193.649072 89.124558 195.375524 89.759431 
C197.101976 90.394304 198.875860 90.900080 200.314386 91.265967 
C203.130414 91.968716 205.000451 92.282110 207.294074 92.610444 
C210.023607 93.020626 212.770529 93.239419 215.512777 93.421717 
L215.512777 60.203442 
L238.321711 60.203442 
L238.321711 63.777046 
z"/>
<path style="fill:#000000;stroke:#000000;fill-rule: evenodd;stroke-linejoin:round;stroke-width:0.000001"
d="M245.807194 111.351117 
L245.807194 124.284661 
C250.435546 127.331693 255.172671 129.907872 259.629749 130.759198 
C264.832476 131.809395 270.374473 131.747407 275.915339 129.936309 
C278.467036 129.055555 280.639812 127.921963 282.777037 126.656432 
L282.777037 130.880244 
C280.324655 132.101864 277.903676 133.179724 275.462349 133.918280 
C274.496440 134.214151 273.517798 134.470101 272.244553 134.700175 
C269.645103 135.183495 266.189667 135.431856 263.103454 135.095846 
C257.340842 134.631631 251.490999 132.039022 245.807194 128.914103 
L245.807194 153.604459 
L245.881749 153.560611 
L245.881749 158.345970 
L245.807194 158.396337 
L245.807194 179.962277 
L242.071153 177.640626 
L242.071153 111.097940 
L245.807194 111.351117 
z"/>
<path style="fill:#000000;stroke:#000000;fill-rule: evenodd;stroke-linejoin:round;stroke-width:0.000001"
d="M139.714101 153.511586 
L141.746030 154.036989 
L140.637114 164.139163 
L148.935387 166.326998 
L158.974957 155.560877 
C156.310421 155.012671 153.325857 154.117615 150.495425 152.391154 
C149.926220 152.045688 149.407445 151.693869 148.909261 151.315103 
C147.697664 150.402543 146.650941 149.342699 145.944935 148.473461 
C144.674779 146.934205 143.745975 145.433508 142.869278 143.804241 
L142.150515 150.352141 
L140.103685 149.822885 
C140.753642 143.657744 141.465720 137.582643 141.465336 131.327461 
C141.428764 130.450604 142.258733 129.891880 142.959423 129.938042 
C143.589101 129.941033 144.181228 130.005960 144.489807 130.836762 
C145.132068 133.500538 145.527064 136.399354 148.036412 139.214249 
C148.668109 139.934009 149.321164 140.535380 149.884526 141.012108 
C150.145705 141.236145 150.407597 141.459625 150.937462 141.842715 
C152.119638 142.719016 154.055463 143.864111 155.731492 144.431006 
C157.441073 145.063216 159.160851 145.508352 160.881860 145.886857 
C161.108556 148.599153 161.433314 151.317099 162.322887 154.221952 
C162.577430 155.072973 163.092882 156.375962 163.826272 157.747739 
C164.235325 158.504206 164.701093 159.229954 165.078930 159.781988 
C165.796885 160.824867 166.294837 161.407338 166.963797 162.177701 
L152.389111 177.807138 
C148.116634 176.641928 143.844158 175.394460 139.571681 174.311509 
L137.565942 173.749798 
L138.638606 163.669096 
L131.097439 161.563692 
L121.335905 172.031656 
C124.567319 172.484677 128.137424 173.470599 131.504995 175.970577 
C132.039511 176.374181 132.549226 176.810341 132.898375 177.125108 
C133.936640 178.092189 134.191936 178.451882 134.790322 179.191208 
C135.506127 180.104964 136.117379 181.043042 136.689523 181.986225 
L137.172268 177.449475 
L139.260567 178.034306 
C138.819064 182.992615 138.522816 187.944603 137.936059 192.909232 
C137.626259 194.879325 137.266535 196.909887 135.831685 198.989014 
C135.382803 199.618286 134.921976 200.157186 134.419041 200.595829 
C133.988267 201.008329 133.216546 201.504264 132.330243 201.737692 
C131.785383 201.873513 131.206788 201.877427 130.771818 201.831896 
C129.884039 201.677706 129.401982 201.616892 128.572869 200.511852 
C128.082543 199.452699 128.170586 199.086376 128.345498 198.203302 
C128.712809 196.865067 130.114230 195.751444 131.166569 195.608178 
C132.317681 195.128768 135.142480 196.136703 135.682132 193.699338 
C135.806812 193.136891 135.792843 193.138342 135.799415 192.715540 
C135.866065 191.957419 135.380364 190.169349 134.581429 189.251848 
C134.112995 188.627435 133.365251 187.859819 132.714128 187.311152 
C132.192661 186.858440 131.364941 186.247012 130.442284 185.649778 
C126.557655 183.310232 122.529050 181.916592 118.557600 180.407228 
C118.677489 179.039745 118.718307 177.501850 118.635085 176.103949 
C118.586570 175.154286 118.445596 173.866794 118.131739 172.487666 
C117.674642 170.583369 117.030240 169.021662 116.329442 167.525180 
C115.812468 166.407556 115.215710 165.316105 114.598367 164.221836 
L127.511332 150.374377 
C131.578921 151.420113 135.646511 152.579351 139.714101 153.511586 
z"/>
<path style="fill:#000000;stroke:#000000;fill-rule: evenodd;stroke-linejoin:round;stroke-width:0.000001"
d="M43.837038 141.893138 
L46.010191 141.386262 
C43.556326 138.311378 42.195244 135.503616 41.926945 132.962976 
C41.658645 130.422336 42.643850 127.951655 44.882559 125.550934 
C46.105771 124.239199 48.007474 122.472784 50.587668 120.251688 
C55.052331 116.456329 58.542493 113.209790 61.058156 110.512073 
C64.450838 106.873866 66.611767 102.931489 67.540943 98.684942 
C68.470119 94.438394 68.329554 86.984825 67.119246 76.324234 
C69.838013 81.242515 72.755274 85.154400 75.871029 88.059889 
C78.714925 90.711865 81.632705 92.702152 84.624369 94.030752 
C87.616033 95.359351 91.398951 96.347461 95.973124 96.995081 
L96.574804 103.811507 
L98.867117 103.535044 
L96.953378 86.272584 
C92.509339 85.783911 88.561828 84.774986 85.110848 83.245810 
C81.659867 81.716634 78.191263 79.326566 74.705035 76.075606 
C71.466304 73.055441 68.776729 69.830161 66.636309 66.399765 
C64.495889 62.969370 62.214352 58.042368 59.791700 51.618758 
L58.043999 51.967114 
C59.433931 59.457865 59.930966 64.879293 59.535104 68.231400 
C59.139242 71.583506 58.122711 74.137400 56.485511 75.893082 
C54.917550 77.574515 53.078190 78.482671 50.967432 78.617549 
C48.856675 78.752427 47.110044 78.175263 45.727541 76.886059 
C45.036097 76.241276 44.442215 75.294163 43.945897 74.044721 
L41.792332 74.084010 
C41.952939 75.747729 42.268109 77.096841 42.737841 78.131343 
C43.207573 79.165846 43.949808 80.156227 44.964546 81.102485 
C45.558539 81.656392 46.239915 82.141403 47.008674 82.557517 
C47.777433 82.973630 48.632740 83.296933 49.574595 83.527424 
C49.093267 84.142826 48.691046 84.623775 48.367934 84.970270 
C46.890847 86.554251 45.017007 87.374944 42.746413 87.432349 
C40.475819 87.489754 38.476023 86.712298 36.747024 85.099980 
C35.511859 83.948170 34.701160 82.266747 34.314924 80.055711 
L32.148832 79.736281 
C31.939086 81.797156 32.087300 83.523786 32.593473 84.916173 
C33.369939 87.159973 34.624411 89.089655 36.356890 90.705218 
C36.728135 91.051410 37.168240 91.398190 37.677203 91.745559 
C38.186166 92.092928 38.751613 92.429345 39.373545 92.754811 
C37.814314 94.129160 36.560667 95.324670 35.612606 96.341342 
C32.814220 99.342243 30.883758 102.317980 29.821220 105.268553 
C28.758682 108.219125 28.264956 111.862255 28.340040 116.197941 
C26.753412 113.145149 25.132529 110.847034 23.477393 109.303594 
C21.847006 107.783234 19.426734 106.243505 16.216578 104.684407 
C14.757300 103.971411 13.694119 103.303881 13.027037 102.681817 
C11.742373 101.483848 11.041056 100.068908 10.923087 98.436996 
C10.805118 96.805084 11.275158 95.421818 12.333207 94.287199 
C12.724476 93.867614 13.295997 93.478025 14.047769 93.118430 
L12.969449 91.037064 
C11.600092 91.934886 10.557682 92.767418 9.842218 93.534659 
C7.603510 95.935380 6.585341 98.884309 6.787713 102.381448 
C6.990084 105.878586 8.388116 108.836483 10.981808 111.255140 
C12.167086 112.360430 14.416412 113.625070 17.729784 115.049060 
C21.043156 116.473050 23.391480 117.830008 24.774757 119.119934 
C27.294199 121.469352 28.859225 124.594542 29.469836 128.495505 
L31.828611 128.161725 
C31.097415 124.010945 31.075569 120.567736 31.763074 117.832099 
C32.450579 115.096461 33.993923 112.442237 36.393106 109.869428 
C38.169504 107.964475 40.346604 105.877922 42.924407 103.609770 
C47.802697 99.370850 51.026184 96.410286 52.594867 94.728080 
C55.940308 91.140533 58.389012 87.353001 59.940980 83.365483 
C61.492947 79.377965 62.529022 74.065274 63.049207 67.427410 
C64.597003 75.024884 64.761472 81.494335 63.542613 86.835763 
C62.323754 92.177190 59.694871 97.013503 55.655963 101.344701 
C53.371095 103.794922 50.687955 106.324896 47.606542 108.934623 
C44.525129 111.544350 42.049704 113.851576 40.180266 115.856302 
C38.518544 117.638281 37.299100 119.786418 36.521933 122.300715 
C35.744766 124.815011 35.584975 127.210944 36.042559 129.488514 
C36.500143 131.766085 37.359616 133.909434 38.620978 135.918563 
C39.578539 137.413035 41.317225 139.404560 43.837038 141.893138 
L43.837038 141.893138 
z"/>
</g>
</g>
<defs>
</defs>
</svg>
